<?xml version="1.0" encoding="UTF-8" standalone="no"?>
<!-- Created with Inkscape (http://www.inkscape.org/) -->

<svg
   xmlns:dc="http://purl.org/dc/elements/1.1/"
   xmlns:cc="http://creativecommons.org/ns#"
   xmlns:rdf="http://www.w3.org/1999/02/22-rdf-syntax-ns#"
   xmlns:svg="http://www.w3.org/2000/svg"
   xmlns="http://www.w3.org/2000/svg"
   xmlns:sodipodi="http://sodipodi.sourceforge.net/DTD/sodipodi-0.dtd"
   xmlns:inkscape="http://www.inkscape.org/namespaces/inkscape"
   width="400"
   height="400"
   viewBox="0 0 105.83333 105.83334"
   version="1.1"
   id="svg8"
   inkscape:version="0.92.2 5c3e80d, 2017-08-06"
   sodipodi:docname="gm-logo.svg">
  <title
     id="title10">Giacomo Marciani Logo</title>
  <defs
     id="defs2">
    <clipPath
       clipPathUnits="userSpaceOnUse"
       id="clipPath963">
      <rect
         style="opacity:0.38999999;fill:#000000;fill-opacity:1;stroke:none;stroke-width:16.23611832;stroke-linecap:square;stroke-linejoin:miter;stroke-miterlimit:4;stroke-dasharray:none;stroke-opacity:1"
         id="rect965"
         width="65.962776"
         height="64.338478"
         x="40.334312"
         y="-269.80826"
         transform="scale(1,-1)" />
    </clipPath>
  </defs>
  <sodipodi:namedview
     id="base"
     pagecolor="#ffffff"
     bordercolor="#666666"
     borderopacity="1.0"
     inkscape:pageopacity="0.0"
     inkscape:pageshadow="2"
     inkscape:zoom="1.084"
     inkscape:cx="151.25047"
     inkscape:cy="246.17884"
     inkscape:document-units="mm"
     inkscape:current-layer="layer1"
     showgrid="false"
     units="px"
     inkscape:window-width="1280"
     inkscape:window-height="755"
     inkscape:window-x="0"
     inkscape:window-y="1"
     inkscape:window-maximized="1"
     inkscape:snap-grids="true"
     showguides="true" />
  <metadata
     id="metadata5">
    <rdf:RDF>
      <cc:Work
         rdf:about="">
        <dc:format>image/svg+xml</dc:format>
        <dc:type
           rdf:resource="http://purl.org/dc/dcmitype/StillImage" />
        <dc:title>Giacomo Marciani Logo</dc:title>
        <dc:date>2020-04-25</dc:date>
        <dc:creator>
          <cc:Agent>
            <dc:title>Giacomo Marciani</dc:title>
          </cc:Agent>
        </dc:creator>
        <dc:rights>
          <cc:Agent>
            <dc:title>All Rights Reserved</dc:title>
          </cc:Agent>
        </dc:rights>
      </cc:Work>
    </rdf:RDF>
  </metadata>
  <g
     inkscape:label="shield"
     inkscape:groupmode="layer"
     id="layer1"
     transform="translate(0,-191.16665)"
     style="display:inline">
    <g
       id="g4991">
      <path
         inkscape:transform-center-x="1.3630907e-06"
         sodipodi:nodetypes="czczcczc"
         inkscape:connector-curvature="0"
         id="path4815"
         d="m 53.321366,280.94836 c 0,0 -26.450884,-14.8945 -32.614001,-27.00706 -6.163116,-12.11255 -4.878329,-36.84201 -4.878329,-36.84201 0,0 12.411837,-3.38653 18.617755,-5.07979 6.205922,-1.69326 18.617757,-5.0798 18.617757,-5.0798 l 36.721878,10.15959 c 0,0 2.055222,24.72946 -4.107879,36.84201 -6.163117,12.11256 -32.357181,27.00706 -32.357181,27.00706 z"
         inkscape:transform-center-y="16.252977"
         style="opacity:1;fill:none;fill-opacity:1;stroke:#006680;stroke-width:4.87658119;stroke-linecap:round;stroke-linejoin:round;stroke-miterlimit:4;stroke-dasharray:none;stroke-dashoffset:0;stroke-opacity:1" />
      <path
         style="opacity:1;fill:#0088aa;fill-opacity:1;stroke:#006680;stroke-width:4.94245386;stroke-linecap:square;stroke-linejoin:miter;stroke-miterlimit:4;stroke-dasharray:none;stroke-dashoffset:0;stroke-opacity:1"
         inkscape:transform-center-y="16.252977"
         d="m 53.321367,280.94836 c 0,0 -26.450884,-14.8945 -32.614,-27.00706 -6.163117,-12.11255 -4.878329,-36.84201 -4.878329,-36.84201 0,0 12.411836,-3.38653 18.617754,-5.07979 6.205922,-1.69326 18.617758,-5.0798 18.617758,-5.0798 l 36.721876,10.15959 c 0,0 2.055222,24.72946 -4.107878,36.84201 -6.163117,12.11256 -32.357181,27.00706 -32.357181,27.00706 z"
         id="path4855"
         inkscape:connector-curvature="0"
         sodipodi:nodetypes="czczcczc"
         inkscape:transform-center-x="1.3630907e-06" />
      <path
         sodipodi:nodetypes="csczczcc"
         inkscape:connector-curvature="0"
         id="path4881"
         d="m 77.917935,237.89331 c -0.171408,5.20861 -0.857462,7.17094 -2.916051,11.26956 -4.117176,8.19725 -21.615756,18.2772 -21.615756,18.2772 0,0 -17.670132,-10.07995 -21.787312,-18.2772 -4.117188,-8.19725 -3.258899,-24.93306 -3.258899,-24.93306 0,0 8.291554,-2.29186 12.437328,-3.43778 l 12.437324,-3.4378 24.531534,6.87558"
         inkscape:transform-center-y="12.187597"
         style="opacity:1;fill:none;fill-opacity:1;stroke:#ffffff;stroke-width:7.90792608;stroke-linecap:round;stroke-linejoin:miter;stroke-miterlimit:4;stroke-dasharray:none;stroke-dashoffset:0;stroke-opacity:1" />
      <path
         style="opacity:1;fill:none;fill-opacity:1;stroke:#ffffff;stroke-width:7.90792608;stroke-linecap:round;stroke-linejoin:miter;stroke-miterlimit:4;stroke-dasharray:none;stroke-dashoffset:0;stroke-opacity:1"
         inkscape:transform-center-y="12.187597"
         d="m 59.987526,232.33107 17.930409,5.56224"
         id="path4883"
         inkscape:connector-curvature="0"
         sodipodi:nodetypes="cc" />
      <path
         inkscape:transform-center-x="1.3630907e-06"
         sodipodi:nodetypes="czczcc"
         inkscape:connector-curvature="0"
         id="path4889"
         d="m 53.321364,280.94836 c 0,0 -26.450881,-14.8945 -32.613999,-27.00706 -6.163118,-12.11255 -4.878331,-36.84201 -4.878331,-36.84201 l 18.617755,-5.07979 c 6.205925,-1.69326 18.617761,-5.0798 18.617761,-5.0798 z"
         inkscape:transform-center-y="16.252977"
         style="opacity:0.43600003;fill:#216778;fill-opacity:1;stroke:none;stroke-width:4.87658119;stroke-linecap:round;stroke-linejoin:round;stroke-miterlimit:4;stroke-dasharray:none;stroke-dashoffset:0;stroke-opacity:1" />
    </g>
  </g>
</svg>
