<?xml version="1.0" encoding="UTF-8" standalone="no"?>
<!-- Created with Inkscape (http://www.inkscape.org/) -->

<svg
   xmlns:dc="http://purl.org/dc/elements/1.1/"
   xmlns:cc="http://creativecommons.org/ns#"
   xmlns:rdf="http://www.w3.org/1999/02/22-rdf-syntax-ns#"
   xmlns:svg="http://www.w3.org/2000/svg"
   xmlns="http://www.w3.org/2000/svg"
   xmlns:sodipodi="http://sodipodi.sourceforge.net/DTD/sodipodi-0.dtd"
   xmlns:inkscape="http://www.inkscape.org/namespaces/inkscape"
   width="1000"
   height="1000"
   id="svg2996"
   version="1.1"
   inkscape:version="0.48.5 r10040"
   sodipodi:docname="fallback-image.svg"
   inkscape:export-filename="/home/gmarciani/Dropbox/workspace/logo/gmarciani-logo.png"
   inkscape:export-xdpi="90"
   inkscape:export-ydpi="90">
  <defs
     id="defs2998">
    <inkscape:path-effect
       is_visible="true"
       id="path-effect5782"
       effect="spiro" />
    <inkscape:path-effect
       is_visible="true"
       id="path-effect5782-3"
       effect="spiro" />
  </defs>
  <sodipodi:namedview
     id="base"
     pagecolor="#ffffff"
     bordercolor="#666666"
     borderopacity="1.0"
     inkscape:pageopacity="0.0"
     inkscape:pageshadow="2"
     inkscape:zoom="0.35"
     inkscape:cx="-383.3986"
     inkscape:cy="343.81105"
     inkscape:document-units="px"
     inkscape:current-layer="layer1"
     showgrid="false"
     inkscape:window-width="1366"
     inkscape:window-height="702"
     inkscape:window-x="0"
     inkscape:window-y="27"
     inkscape:window-maximized="1" />
  <metadata
     id="metadata3001">
    <rdf:RDF>
      <cc:Work
         rdf:about="">
        <dc:format>image/svg+xml</dc:format>
        <dc:type
           rdf:resource="http://purl.org/dc/dcmitype/StillImage" />
        <dc:title />
      </cc:Work>
    </rdf:RDF>
  </metadata>
  <g
     inkscape:label="Layer 1"
     inkscape:groupmode="layer"
     id="layer1"
     transform="translate(0,-52.362183)">
    <path
       style="fill:none;stroke:#c8c8c8;stroke-width:60.04405593999999979;stroke-linecap:round;stroke-linejoin:round;stroke-miterlimit:4;stroke-opacity:1;stroke-dasharray:none;stroke-dashoffset:0"
       d="M 548.52062,297.21378 C 477.70708,252.03701 387.84891,237.86819 306.56991,259.06303 225.29091,280.25787 153.79424,336.50263 114.0591,410.5068 74.323962,484.51096 66.938544,575.17904 94.173242,654.63827 121.40794,734.0975 182.8596,801.17164 259.63702,835.24105 c 32.41267,14.38288 68.14759,23.12978 103.37538,19.07375 17.6139,-2.02802 34.92941,-7.27956 50.32132,-16.0802 15.39191,-8.80065 28.81803,-21.20155 38.14877,-36.278 9.67923,-15.63954 14.79668,-33.86489 16.13657,-52.20848 1.33989,-18.34359 -0.99949,-36.82725 -5.43441,-54.67701 -8.86983,-35.69953 -25.91414,-68.73112 -39.62284,-102.86617 -14.03025,-34.93571 -24.73586,-73.07044 -17.2433,-109.96507 3.74628,-18.44731 12.19043,-36.15965 25.44625,-49.52456 13.25583,-13.36492 31.49223,-22.10054 50.31388,-22.38919 18.95558,-0.29071 37.56475,7.99599 51.3026,21.06007 13.73785,13.06408 22.78056,30.61266 27.24384,49.03758 8.92655,36.84985 0.096,75.55765 -11.10446,111.78117 -8.90635,28.80403 -19.46613,58.29149 -16.30111,88.27446 1.58251,14.99148 6.78529,29.83626 16.38391,41.46017 9.59862,11.62391 23.83987,19.74221 38.90233,20.35133 15.39034,0.62238 30.54205,-6.64833 41.07856,-17.88363 10.5365,-11.23531 16.7032,-26.10568 19.11186,-41.3191 4.81733,-30.42685 -4.63687,-61.04064 -12.28015,-90.88323 -4.73439,-18.48505 -8.80465,-37.99177 -4.0442,-56.47013 2.38022,-9.23918 7.04247,-18.0167 14.06416,-24.47608 7.0217,-6.45938 16.49928,-10.44057 26.02964,-9.9932 9.22925,0.43324 18.01884,4.98037 24.43725,11.62648 6.41841,6.64612 10.57441,15.2629 12.77383,24.23671 4.39884,17.94764 1.23338,36.75324 -1.16155,55.07622 -2.1032,16.09106 -3.51951,32.92113 2.11117,48.14089 2.81535,7.60989 7.42944,14.65587 13.79996,19.6811 6.37052,5.02522 14.56239,7.90941 22.6471,7.221 7.66412,-0.65259 14.87435,-4.46375 20.34741,-9.86841 5.47305,-5.40466 9.29365,-12.32247 11.7874,-19.59887 4.9875,-14.55278 4.8095,-30.27688 6.42339,-45.57571 1.12062,-10.62287 3.24629,-21.45598 9.03385,-30.43402 2.89378,-4.48903 6.69411,-8.44133 11.27795,-11.18244 4.58384,-2.74112 9.97013,-4.2303 15.29771,-3.85325 5.11709,0.36215 10.03797,2.42766 14.16082,5.48019 4.12285,3.05252 7.47706,7.06186 10.15357,11.43817 5.35301,8.75262 8.00906,18.83204 11.29513,28.55135 2.76616,8.18155 6.07784,16.30346 11.26973,23.20518 5.1919,6.90171 12.47147,12.54103 20.92356,14.31631 4.91571,1.0325 10.10708,0.71988 14.86337,-0.89506 4.75629,-1.61494 9.06475,-4.52787 12.33553,-8.33999 3.27078,-3.81212 5.49512,-8.51322 6.36849,-13.45969 0.87336,-4.94646 0.39342,-10.12504 -1.37413,-14.82675"
       id="path5780"
       inkscape:path-effect="#path-effect5782-3"
       inkscape:original-d="m 548.52062,297.21378 c 0,0 -365.93837,523.89845 -288.8836,538.02727 77.05477,14.12882 182.75827,-22.97381 191.84547,-33.28445 9.08715,-10.31064 -24.95495,-131.65652 -28.92068,-209.75166 -3.96575,-78.09513 24.0096,-178.94442 58.51683,-181.87882 41.82576,-3.55673 72.4144,73.79404 67.44198,181.87882 -4.97186,108.07383 -5.64376,150.08596 38.98513,150.08596 44.62886,0 45.93857,-51.2957 47.91027,-150.08596 1.9717,-98.79026 -8.57931,-90.93941 36.0496,-90.93941 44.62882,0 37.04304,23.84886 36.04953,90.93941 -0.99345,67.09051 -32.61533,77.72039 38.55823,75.04299 67.66755,-2.54559 40.49822,-19.81852 38.5582,-75.04299 -1.93998,-55.22451 -44.50566,-48.75284 35.60951,-45.46971 89.78498,3.6794 37.75911,4.86147 35.60952,45.46971 -1.01133,19.10549 18.16856,32.65503 32.19329,37.52149 14.0247,4.86648 29.6718,-47.5915 32.19326,-37.52149"
       inkscape:connector-curvature="0"
       sodipodi:nodetypes="csssssssssszsssc" />
  </g>
</svg>
