<?xml version="1.0" encoding="UTF-8" standalone="no"?>
<svg
   xmlns:dc="http://purl.org/dc/elements/1.1/"
   xmlns:cc="http://creativecommons.org/ns#"
   xmlns:rdf="http://www.w3.org/1999/02/22-rdf-syntax-ns#"
   xmlns:svg="http://www.w3.org/2000/svg"
   xmlns="http://www.w3.org/2000/svg"
   xmlns:sodipodi="http://sodipodi.sourceforge.net/DTD/sodipodi-0.dtd"
   xmlns:inkscape="http://www.inkscape.org/namespaces/inkscape"
   version="1.0"
   width="700"
   height="700"
   viewBox="0 0 524.99999 525"
   preserveAspectRatio="xMidYMid meet"
   id="svg447"
   sodipodi:docname="404-2.svg"
   inkscape:version="0.92.2 5c3e80d, 2017-08-06">
  <metadata
     id="metadata453">
    <rdf:RDF>
      <cc:Work
         rdf:about="">
        <dc:format>image/svg+xml</dc:format>
        <dc:type
           rdf:resource="http://purl.org/dc/dcmitype/StillImage" />
        <dc:title></dc:title>
      </cc:Work>
    </rdf:RDF>
  </metadata>
  <defs
     id="defs451" />
  <sodipodi:namedview
     pagecolor="#ffffff"
     bordercolor="#666666"
     borderopacity="1"
     objecttolerance="10"
     gridtolerance="10"
     guidetolerance="10"
     inkscape:pageopacity="0"
     inkscape:pageshadow="2"
     inkscape:window-width="2560"
     inkscape:window-height="1396"
     id="namedview449"
     showgrid="false"
     units="px"
     inkscape:zoom="0.72849462"
     inkscape:cx="257.33333"
     inkscape:cy="372"
     inkscape:window-x="0"
     inkscape:window-y="0"
     inkscape:window-maximized="1"
     inkscape:current-layer="svg447" />
  <g
     transform="matrix(0.1,0,0,-0.1,73.93721,550.0568)"
     id="g445"
     style="fill:#000000;stroke:none">
    <path
       d="m 265,5339 c -11,-17 4,-59 21,-59 11,0 12,4 4,19 -7,14 -7,22 0,26 11,7 4,25 -10,25 -5,0 -12,-5 -15,-11 z"
       id="path261"
       inkscape:connector-curvature="0" />
    <path
       d="m 304,5325 c -4,-8 -3,-23 1,-32 7,-17 8,-16 15,2 5,11 9,26 9,33 1,17 -18,15 -25,-3 z"
       id="path263"
       inkscape:connector-curvature="0" />
    <path
       d="m 804,5310 c -26,-10 -44,-58 -44,-114 0,-32 10,-57 50,-116 55,-83 64,-130 32,-170 l -19,-23 -16,24 c -10,13 -17,29 -17,36 0,7 -7,13 -15,13 -17,0 -19,-9 -5,-44 20,-55 79,-57 106,-4 25,49 13,99 -45,185 -54,80 -60,103 -37,158 12,27 21,35 40,35 29,0 35,15 10,24 -9,3 -16,6 -17,5 -1,0 -12,-4 -23,-9 z"
       id="path265"
       inkscape:connector-curvature="0" />
    <path
       d="m 1495,5306 c -22,-16 -33,-105 -34,-283 -1,-110 7,-146 38,-162 28,-15 47,-5 68,37 15,32 17,60 15,215 l -3,177 h 40 41 l 2,-207 c 2,-164 6,-207 17,-211 11,-4 13,30 10,204 l -4,209 33,3 c 17,2 32,7 32,13 0,12 -157,12 -165,0 -3,-6 -17,-4 -33,5 -33,17 -34,17 -57,0 z m 61,-186 c 5,-130 4,-161 -9,-192 -18,-43 -44,-50 -53,-14 -3,12 -4,96 -2,185 3,148 5,164 22,177 11,8 23,11 27,7 5,-5 11,-78 15,-163 z"
       id="path267"
       inkscape:connector-curvature="0" />
    <path
       d="m 386,5301 c -4,-6 10,-11 31,-13 37,-3 38,-4 36,-38 -5,-91 -4,-340 2,-359 16,-50 20,-9 19,181 l -1,203 34,5 c 18,3 35,10 36,15 3,13 -149,19 -157,6 z"
       id="path269"
       inkscape:connector-curvature="0" />
    <path
       d="m 570,5087 c 0,-125 4,-227 9,-227 11,0 21,76 21,161 0,49 4,69 13,69 30,-1 37,-19 45,-118 4,-60 11,-101 17,-100 6,2 9,9 8,17 -1,8 -5,104 -9,213 -7,208 -24,282 -24,108 v -101 l -25,3 c -25,3 -26,5 -28,90 -1,54 -7,92 -14,100 -10,10 -13,-33 -13,-215 z"
       id="path271"
       inkscape:connector-curvature="0" />
    <path
       d="m 708,5098 c 3,-184 10,-245 25,-227 10,11 -6,410 -17,424 -8,12 -10,-38 -8,-197 z"
       id="path273"
       inkscape:connector-curvature="0" />
    <path
       d="m 1098,5300 c -9,-6 -19,-24 -23,-41 -13,-57 4,-113 55,-190 32,-48 50,-85 50,-104 0,-34 -24,-75 -45,-75 -23,0 -44,28 -38,51 4,16 2,20 -8,17 -8,-2 -15,-19 -17,-36 -6,-55 59,-78 112,-39 29,21 33,95 7,145 -11,22 -25,43 -30,46 -5,3 -21,29 -35,57 -21,38 -26,62 -24,97 l 3,47 38,-1 c 40,-1 48,9 18,26 -24,12 -41,12 -63,0 z"
       id="path275"
       inkscape:connector-curvature="0" />
    <path
       d="m 1823,5295 c 2,-5 21,-12 43,-15 l 39,-5 3,-207 c 2,-157 5,-208 15,-208 9,0 12,51 12,210 v 210 h 33 c 45,0 40,20 -5,21 -21,0 -62,2 -91,2 -31,1 -51,-2 -49,-8 z"
       id="path277"
       inkscape:connector-curvature="0" />
    <path
       d="m 2027,5093 c 5,-228 6,-248 23,-238 6,4 10,53 10,116 v 109 h 25 25 v -110 c 0,-81 3,-110 13,-110 9,0 11,36 9,152 -3,195 -11,298 -24,298 -6,0 -7,-36 -3,-100 l 8,-100 h -26 c -23,0 -25,4 -31,63 -11,101 -17,137 -25,137 -4,0 -6,-98 -4,-217 z"
       id="path279"
       inkscape:connector-curvature="0" />
    <path
       d="m 2166,5158 c 3,-84 7,-186 10,-225 l 6,-73 41,4 c 23,2 57,4 75,5 58,2 34,20 -30,23 l -63,3 v 95 95 l 43,3 c 55,4 55,22 -1,22 h -44 l -9,85 -9,84 54,3 c 32,2 56,8 59,16 3,9 -15,12 -66,12 h -70 z"
       id="path281"
       inkscape:connector-curvature="0" />
    <path
       d="m 1003,5218 c 4,-46 9,-143 13,-215 4,-78 11,-133 17,-133 7,0 8,59 4,173 -8,194 -15,257 -30,257 -6,0 -8,-29 -4,-82 z"
       id="path283"
       inkscape:connector-curvature="0" />
    <path
       d="m 1290,5085 c 0,-137 4,-215 10,-215 6,0 10,62 11,163 l 1,162 23,-90 c 47,-192 73,-260 92,-242 8,9 -9,437 -18,437 -5,0 -10,-73 -11,-162 l -3,-163 -18,75 c -33,133 -70,250 -79,250 -4,0 -8,-97 -8,-215 z"
       id="path285"
       inkscape:connector-curvature="0" />
    <path
       d="m 3416,5092 c -4,-7 -5,-22 -2,-35 3,-12 3,-16 0,-10 -7,16 -54,-13 -54,-34 0,-8 -3,-12 -7,-10 -5,3 -8,-20 -9,-51 0,-31 -5,-57 -10,-59 -5,-2 -7,-26 -6,-53 2,-29 -1,-57 -8,-64 -7,-10 -8,-16 0,-21 13,-8 13,-41 -2,-82 -10,-27 -9,-35 1,-45 11,-11 13,-10 9,2 -3,8 -1,26 4,40 15,38 20,119 7,100 -9,-12 -10,-12 -5,3 3,10 6,32 6,48 0,16 4,29 9,29 4,0 7,-34 6,-75 -1,-42 2,-78 7,-81 4,-3 8,-14 8,-25 0,-17 -10,-24 -32,-20 -4,0 -5,-6 -2,-14 4,-9 1,-21 -5,-29 -7,-8 -12,-39 -12,-70 -1,-43 -5,-56 -16,-56 -11,0 -13,-4 -5,-12 19,-24 33,-220 20,-293 -4,-24 -2,-45 5,-53 7,-10 6,-17 -6,-29 -11,-11 -13,-22 -7,-37 4,-12 9,-66 10,-121 3,-99 3,-117 0,-165 -3,-56 7,-226 14,-242 6,-12 3,-20 -7,-24 -11,-4 -13,-13 -7,-40 4,-19 4,-37 -1,-40 -12,-7 -11,-44 1,-44 21,0 10,-42 -12,-48 -21,-5 -21,-6 -2,-12 10,-4 22,-2 26,4 5,8 11,7 20,-3 7,-8 8,-11 3,-8 -6,3 -21,-2 -33,-11 -20,-16 -21,-19 -8,-44 13,-25 12,-27 -10,-32 -31,-8 -31,-26 -1,-26 18,0 23,-5 22,-22 -1,-12 -7,-24 -13,-26 -6,-2 -8,-10 -5,-18 3,-8 0,-21 -7,-29 -7,-9 -8,-15 -2,-15 5,0 12,-9 15,-21 3,-12 10,-19 15,-15 15,9 7,-32 -11,-52 -9,-10 -17,-28 -17,-40 0,-18 6,-22 30,-22 20,0 30,-5 30,-15 0,-8 -6,-15 -14,-15 -8,0 -16,-6 -19,-12 -7,-23 5,-48 24,-48 21,0 31,-39 33,-130 0,-32 4,-62 9,-66 11,-11 8,-122 -4,-126 -14,-5 -15,-266 -1,-280 6,-6 30,-13 55,-15 39,-5 46,-2 65,22 20,25 22,40 22,146 0,65 -4,120 -9,123 -11,7 -23,116 -14,130 5,6 6,84 3,174 -5,168 -5,170 35,163 6,-1 2,5 -7,15 -16,16 -16,19 0,48 9,17 21,33 25,34 4,2 3,10 -4,18 -6,7 -9,20 -6,28 3,8 1,16 -5,18 -6,2 -12,14 -13,26 -1,17 4,22 22,22 30,0 30,18 -1,26 -23,5 -23,7 -10,32 12,24 12,28 -3,39 -15,11 -14,13 7,21 l 24,9 -22,5 c -22,6 -32,48 -12,48 12,0 13,37 1,44 -5,3 -5,21 -1,40 6,27 4,36 -7,40 -10,4 -13,12 -7,24 7,16 17,186 14,242 -3,48 -3,66 0,165 1,55 6,109 10,121 6,15 4,26 -7,37 -12,12 -13,19 -6,29 13,15 2,90 -16,112 -9,11 -9,16 0,22 7,4 9,3 5,-4 -3,-6 -2,-14 4,-17 7,-4 10,8 9,37 0,23 2,84 5,135 5,65 3,94 -5,99 -7,4 -9,3 -5,-4 3,-6 2,-22 -4,-37 -5,-14 -6,-24 -2,-21 4,2 8,-10 8,-29 0,-19 -4,-31 -8,-29 -4,3 -8,16 -8,29 0,13 -4,26 -10,30 -6,3 -5,15 2,31 9,19 9,30 1,43 -7,12 -8,23 -2,32 8,11 9,10 7,-5 -2,-10 2,-21 7,-22 9,-4 12,9 15,89 3,48 -3,97 -12,97 -4,0 -12,-8 -17,-17 -10,-17 -10,-17 -11,-1 0,9 5,20 10,23 6,3 10,11 10,16 0,6 -4,7 -10,4 -6,-4 -7,1 -3,11 6,16 7,15 20,-2 12,-16 13,-16 13,-1 0,9 5,17 11,17 6,0 7,5 2,13 -14,21 -12,109 3,103 7,-3 3,15 -11,47 -35,78 -39,101 -20,121 16,16 16,17 -9,10 -38,-9 -76,3 -85,28 -5,14 -10,18 -15,10 z m 83,-78 c 6,-14 11,-30 10,-37 0,-7 -7,2 -14,18 -8,17 -14,26 -15,21 0,-10 -30,13 -30,24 0,18 38,-3 49,-26 z m -105,2 c -8,-20 -24,-21 -24,0 0,8 5,12 10,9 6,-3 10,-1 10,6 0,7 2,10 5,7 3,-3 3,-13 -1,-22 z m -27,-58 c -3,-7 -5,-2 -5,12 0,14 2,19 5,13 2,-7 2,-19 0,-25 z m 161,-22 c 9,-20 8,-25 -7,-29 -13,-3 -17,3 -19,24 -3,35 11,38 26,5 z m -160,-31 c -3,-3 -9,2 -12,12 -6,14 -5,15 5,6 7,-7 10,-15 7,-18 z m 166,-52 c -2,-74 -3,-83 -11,-83 -5,0 -8,26 -7,58 1,68 2,72 12,72 4,0 7,-21 6,-47 z m -7,-223 c 0,-57 -9,-77 -20,-45 -4,8 -2,17 4,21 6,4 6,11 -2,20 -9,12 -9,20 1,39 7,14 14,25 15,25 1,0 2,-27 2,-60 z m -170,-12 c -3,-8 -6,-5 -6,6 -1,11 2,17 5,13 3,-3 4,-12 1,-19 z m 9,-30 c 4,-6 3,-8 -3,-5 -6,4 -13,0 -17,-8 -3,-8 -1,-15 4,-15 14,0 12,-34 -2,-49 -11,-10 -9,-11 7,-5 20,7 20,7 1,-14 -17,-20 -15,-27 7,-23 4,0 7,-4 7,-10 0,-6 -8,-9 -18,-7 -15,4 -17,-2 -15,-46 4,-72 5,-76 17,-76 6,0 5,-5 -2,-12 -17,-17 -20,-10 -26,65 -3,38 -8,72 -11,77 -3,5 -1,11 5,15 5,3 10,15 10,25 0,10 6,20 13,23 9,3 9,8 1,18 -16,21 -15,59 1,59 8,0 17,-5 21,-12 z m 1,-210 c -3,-8 -6,-5 -6,6 -1,11 2,17 5,13 3,-3 4,-12 1,-19 z m 163,-43 c 0,-18 -4,-23 -16,-18 -13,5 -13,7 -2,14 7,5 9,9 5,9 -5,0 -5,5 -2,10 10,16 15,12 15,-15 z m -180,-107 c 0,-26 -9,-19 -15,11 -2,12 0,19 6,16 5,-4 9,-16 9,-27 z m 11,-55 c 13,-15 12,-15 -8,-4 -24,12 -29,21 -14,21 5,0 15,-7 22,-17 z m 2,-46 c -3,-4 -10,-3 -17,2 -7,6 -17,7 -22,3 -4,-4 -2,1 5,10 10,14 16,15 26,5 7,-7 11,-16 8,-20 z m 161,25 c 2,-4 1,-14 -5,-22 -5,-8 -9,-13 -10,-10 0,3 -2,13 -4,23 -3,17 10,24 19,9 z m -166,-52 c -18,-11 -17,-47 1,-42 6,1 11,-5 11,-13 0,-9 -6,-12 -15,-9 -8,4 -15,1 -15,-5 0,-6 4,-11 9,-11 4,0 8,-15 7,-32 -2,-42 -21,-38 -22,5 -1,17 -6,43 -11,57 -8,20 -6,27 11,42 12,9 26,17 31,17 6,0 3,-4 -7,-9 z m 185,-26 c -7,-3 -10,-11 -7,-19 3,-7 1,-16 -5,-20 -6,-3 -11,-1 -11,5 0,6 -5,8 -11,5 -6,-4 -5,2 3,14 7,12 20,21 28,20 9,0 11,-2 3,-5 z m -13,-90 c 0,-21 -2,-23 -14,-12 -9,8 -10,15 -4,19 6,4 7,12 3,19 -5,9 -4,11 3,6 7,-4 12,-18 12,-32 z m -180,-68 c 0,-3 -4,-8 -10,-11 -5,-3 -10,-1 -10,4 0,6 5,11 10,11 6,0 10,-2 10,-4 z m 13,-60 c 4,4 4,-4 1,-17 -3,-13 -6,-31 -6,-41 1,-9 -8,-24 -19,-34 -11,-10 -19,-12 -19,-5 0,6 6,14 14,17 14,5 15,58 2,71 -12,12 -6,25 7,14 8,-6 17,-8 20,-5 z m 150,-67 c -4,-4 -6,13 -3,39 l 5,47 3,-39 c 2,-21 0,-42 -5,-47 z m 22,-18 c 3,-5 1,-12 -5,-16 -5,-3 -10,1 -10,9 0,18 6,21 15,7 z m -174,-75 c -6,-7 -9,-21 -5,-30 3,-9 1,-16 -5,-16 -12,0 -15,42 -4,53 13,13 25,7 14,-7 z m 159,-32 c 0,-8 -4,-12 -10,-9 -5,3 -10,10 -10,16 0,5 5,9 10,9 6,0 10,-7 10,-16 z m -9,-67 c -10,-9 -11,-8 -5,6 3,10 9,15 12,12 3,-3 0,-11 -7,-18 z m -152,-35 c 7,-14 6,-19 -4,-19 -8,0 -11,5 -8,10 3,5 -1,13 -8,18 -10,6 -10,9 -2,9 7,0 17,-8 22,-18 z m 158,-7 c 0,-8 -4,-15 -9,-15 -10,0 -11,14 -1,23 9,10 10,9 10,-8 z m -161,-48 c 0,-13 -7,-24 -13,-24 -16,0 -16,2 -1,27 16,25 16,25 14,-3 z m 174,-11 c 0,-3 -4,-8 -10,-11 -5,-3 -10,-1 -10,4 0,6 5,11 10,11 6,0 10,-2 10,-4 z m -183,-58 c -3,-7 -5,-2 -5,12 0,14 2,19 5,13 2,-7 2,-19 0,-25 z m 173,22 c 0,-5 -5,-10 -11,-10 -5,0 -7,5 -4,10 3,6 8,10 11,10 2,0 4,-4 4,-10 z m -170,-52 c 0,-4 -4,-8 -9,-8 -6,0 -12,4 -15,8 -3,5 1,9 9,9 8,0 15,-4 15,-9 z m 182,5 c -6,-2 -9,-10 -6,-15 4,-7 2,-8 -5,-4 -13,9 -5,26 12,25 9,0 8,-2 -1,-6 z m -175,-53 c 1,-11 -2,-18 -8,-15 -11,7 -12,35 -1,35 4,0 8,-9 9,-20 z m 154,-3 c -10,-9 -11,-8 -5,6 3,10 9,15 12,12 3,-3 0,-11 -7,-18 z m 4,-37 c 3,-5 1,-10 -4,-10 -6,0 -11,5 -11,10 0,6 2,10 4,10 3,0 8,-4 11,-10 z m -162,-27 c -8,-3 -11,-14 -7,-29 5,-19 3,-23 -10,-18 -9,3 -14,9 -12,13 1,3 6,14 9,24 4,9 12,17 19,16 10,0 10,-2 1,-6 z m -3,-178 c -5,-6 -8,-14 -6,-16 2,-2 -3,-11 -12,-18 -14,-13 -15,-12 -9,10 4,13 7,32 7,43 0,15 3,16 15,6 11,-9 12,-16 5,-25 z m 180,14 c 0,-5 -4,-9 -10,-9 -5,0 -10,7 -10,16 0,8 5,12 10,9 6,-3 10,-10 10,-16 z m 8,-50 c -3,-8 -7,-3 -11,10 -4,17 -3,21 5,13 5,-5 8,-16 6,-23 z m -168,-109 c 0,-5 -4,-10 -10,-10 -5,0 -10,5 -10,10 0,6 5,10 10,10 6,0 10,-4 10,-10 z m 108,-112 c -1,-92 -3,-110 -8,-73 l -7,50 -1,-67 c -1,-40 2,-68 8,-68 6,0 10,-7 10,-15 0,-10 -10,-15 -30,-15 -19,0 -28,4 -25,13 3,6 -3,47 -14,89 -10,43 -16,88 -14,100 2,13 -2,32 -10,42 -11,14 -11,24 -3,42 9,20 19,24 54,24 h 42 z m -10,-291 c -1,-37 -2,-38 -14,-15 -7,12 -14,19 -14,13 0,-5 -5,-2 -11,9 -12,20 -2,33 26,33 11,0 14,-11 13,-40 z m 30,-172 -2,-100 -6,75 -7,75 v -81 c 0,-45 -3,-86 -7,-93 -8,-13 -35,-14 -54,-2 -17,10 -27,158 -13,175 6,7 6,17 1,26 -15,24 -13,25 40,25 h 50 z"
       id="path287"
       inkscape:connector-curvature="0" />
    <path
       d="m 3455,2945 c 0,-32 15,-44 15,-12 0,14 -4,28 -8,31 -4,2 -8,-6 -7,-19 z"
       id="path289"
       inkscape:connector-curvature="0" />
    <path
       d="m 1760,4796 c 0,-2 6,-15 13,-30 16,-29 27,-24 27,11 0,16 -6,23 -20,23 -11,0 -20,-2 -20,-4 z"
       id="path291"
       inkscape:connector-curvature="0" />
    <path
       d="m 663,4733 c -23,-4 -23,-7 -23,-146 0,-165 9,-279 21,-271 5,3 9,45 9,95 v 89 h 28 c 15,0 33,5 40,12 25,25 9,218 -18,218 -5,0 -14,2 -22,4 -7,2 -23,1 -35,-1 z m 57,-49 c 19,-49 7,-164 -17,-164 -23,1 -31,23 -37,103 l -7,87 h 26 c 18,0 28,-7 35,-26 z"
       id="path293"
       inkscape:connector-curvature="0" />
    <path
       d="m 816,4719 c -3,-13 -12,-73 -21,-134 -8,-60 -19,-134 -25,-164 -5,-29 -10,-69 -10,-87 0,-62 15,-35 28,49 20,126 21,127 51,127 25,0 28,-5 39,-58 19,-91 42,-162 52,-162 16,0 11,41 -16,135 -14,50 -37,137 -50,194 -25,111 -39,140 -48,100 z m 32,-137 c 8,-35 7,-44 -3,-49 -24,-9 -30,4 -26,57 4,58 13,56 29,-8 z"
       id="path295"
       inkscape:connector-curvature="0" />
    <path
       d="m 1497,4719 c -12,-18 -17,-67 -21,-194 -7,-198 1,-238 47,-243 61,-7 79,68 70,278 -3,82 -9,153 -13,159 -3,6 -20,13 -37,17 -26,5 -34,2 -46,-17 z m 68,-140 c 15,-188 -6,-296 -50,-259 -14,12 -16,37 -13,185 2,129 6,176 17,189 27,32 36,10 46,-115 z"
       id="path297"
       inkscape:connector-curvature="0" />
    <path
       d="m 1736,4683 c 10,-155 11,-308 2,-334 -11,-32 -42,-46 -63,-29 -11,9 -15,36 -16,99 0,162 -18,332 -32,310 -8,-13 10,-420 19,-429 6,-6 27,-13 48,-17 27,-4 41,-1 57,13 19,17 20,26 15,219 -3,110 -5,206 -5,213 -1,6 -7,12 -15,12 -11,0 -13,-13 -10,-57 z"
       id="path299"
       inkscape:connector-curvature="0" />
    <path
       d="m 1820,4634 c 0,-140 20,-336 34,-331 12,4 12,14 2,125 -8,103 13,91 40,-21 12,-48 27,-94 34,-102 15,-18 64,-21 58,-2 -3,6 -10,12 -16,12 -18,0 -24,12 -47,102 -22,82 -22,89 -7,107 13,14 17,37 16,95 0,101 -12,121 -69,121 h -45 z m 65,72 c 24,-17 35,-137 15,-161 -17,-20 -48,-19 -54,3 -4,15 -10,145 -7,165 2,11 26,8 46,-7 z"
       id="path301"
       inkscape:connector-curvature="0" />
    <path
       d="m 950,4704 c -17,-44 -3,-386 16,-403 5,-5 26,-11 47,-14 l 37,-6 v 97 c 0,100 -7,145 -20,137 -4,-3 -5,-44 -2,-93 4,-74 2,-90 -13,-102 -14,-12 -18,-12 -25,0 -18,29 -31,326 -16,368 6,19 13,22 32,18 18,-5 22,-3 18,9 -4,9 -19,15 -35,15 -22,0 -32,-6 -39,-26 z"
       id="path303"
       inkscape:connector-curvature="0" />
    <path
       d="m 1078,4528 c 2,-112 5,-209 7,-216 3,-9 20,-12 52,-10 53,3 62,22 12,24 -17,1 -35,7 -40,15 -14,22 -11,169 4,173 6,3 25,7 40,10 37,9 25,27 -16,23 l -32,-2 -5,83 -5,82 h 38 c 20,0 37,5 37,10 0,6 -21,10 -47,10 h -48 z"
       id="path305"
       inkscape:connector-curvature="0" />
    <path
       d="m 1300,4719 c 0,-7 16,-43 35,-81 34,-66 36,-76 42,-199 5,-103 9,-129 21,-129 11,0 13,8 8,33 -11,61 -10,232 2,253 25,47 51,124 42,124 -5,0 -23,-26 -38,-57 l -29,-57 -34,62 c -32,59 -49,76 -49,51 z"
       id="path307"
       inkscape:connector-curvature="0" />
    <path
       d="m 1988,4578 c 5,-208 14,-293 30,-292 6,1 39,2 72,3 78,1 79,21 1,21 -69,0 -71,2 -71,123 v 77 h 44 c 25,0 48,5 51,10 4,6 -9,10 -32,10 -21,0 -43,4 -49,8 -7,4 -15,44 -19,90 l -7,83 35,-6 c 38,-7 77,1 77,16 0,5 -31,9 -68,9 h -68 z"
       id="path309"
       inkscape:connector-curvature="0" />
    <path
       d="m 2195,4200 c -3,-5 -12,-7 -20,-3 -16,6 -18,-10 -5,-42 8,-19 8,-19 19,5 10,23 11,23 7,3 -2,-15 1,-23 9,-23 13,0 25,21 25,45 0,16 -27,28 -35,15 z"
       id="path311"
       inkscape:connector-curvature="0" />
    <path
       d="m 1858,4168 c -18,-32 -24,-359 -8,-399 14,-33 52,-48 75,-29 34,28 42,95 36,308 -4,124 -11,142 -61,142 -20,0 -33,-7 -42,-22 z m 77,-151 c 8,-155 2,-219 -22,-243 -12,-11 -18,-12 -29,-3 -11,9 -14,47 -14,175 0,170 8,214 41,214 15,0 18,-17 24,-143 z"
       id="path313"
       inkscape:connector-curvature="0" />
    <path
       d="m 672,3960 c 3,-122 7,-223 9,-225 2,-2 32,-7 67,-11 53,-6 62,-4 62,9 0,12 -13,17 -52,19 l -53,3 -6,145 c -4,80 -7,175 -8,213 -1,43 -5,67 -12,67 -9,0 -11,-58 -7,-220 z"
       id="path315"
       inkscape:connector-curvature="0" />
    <path
       d="m 836,4158 c -13,-20 -17,-60 -19,-209 -2,-204 3,-229 51,-229 57,0 75,77 66,280 -4,82 -10,153 -14,159 -3,6 -20,13 -37,17 -26,5 -34,2 -47,-18 z m 70,-139 c 17,-183 -6,-297 -51,-259 -14,12 -16,37 -13,185 2,129 6,176 17,189 27,32 36,10 47,-115 z"
       id="path317"
       inkscape:connector-curvature="0" />
    <path
       d="m 976,4159 c -24,-34 -24,-400 0,-423 26,-27 61,-20 81,17 16,28 18,56 16,216 -2,102 -6,188 -11,193 -4,4 -22,10 -39,14 -25,5 -34,2 -47,-17 z m 70,-59 c 0,-25 4,-84 8,-132 12,-139 -22,-255 -60,-203 -20,28 -20,302 1,351 10,25 20,35 32,32 14,-3 18,-14 19,-48 z"
       id="path319"
       inkscape:connector-curvature="0" />
    <path
       d="m 1696,4165 c -3,-8 -2,-105 1,-215 5,-153 9,-200 19,-200 10,0 12,23 7,105 l -6,105 h 51 c 29,0 52,5 52,10 0,6 -22,10 -50,10 h -50 v 85 85 h 44 c 56,0 68,15 18,24 -58,9 -79,7 -86,-9 z"
       id="path321"
       inkscape:connector-curvature="0" />
    <path
       d="m 1981,4073 c 0,-60 6,-151 13,-203 7,-52 11,-103 8,-112 -3,-12 1,-18 12,-18 18,0 19,14 7,128 -10,101 12,97 35,-5 22,-103 38,-133 69,-133 16,0 25,6 25,15 0,8 -7,15 -15,15 -19,0 -30,23 -45,95 -7,33 -16,67 -21,76 -5,11 -2,21 12,32 15,14 19,30 19,85 0,38 -5,83 -11,101 -10,29 -14,31 -60,31 h -49 z m 67,71 c 19,-13 22,-24 22,-89 0,-72 -1,-75 -25,-81 -14,-4 -29,-4 -32,-1 -3,4 -8,47 -11,97 -5,98 0,106 46,74 z"
       id="path323"
       inkscape:connector-curvature="0" />
    <path
       d="m 1112,3958 c 2,-158 6,-212 16,-216 9,-3 12,20 12,90 0,88 12,144 23,108 38,-121 74,-210 85,-210 8,0 12,6 9,13 -2,6 -20,62 -40,122 l -36,110 19,55 c 20,56 27,145 11,136 -4,-3 -11,-24 -15,-47 -8,-50 -45,-139 -57,-139 -5,0 -9,43 -9,95 0,58 -4,95 -10,95 -7,0 -9,-73 -8,-212 z"
       id="path325"
       inkscape:connector-curvature="0" />
    <path
       d="m 1264,4118 c 3,-29 9,-126 13,-215 5,-127 9,-163 20,-163 16,0 16,0 3,210 -11,182 -16,220 -32,220 -7,0 -9,-18 -4,-52 z"
       id="path327"
       inkscape:connector-curvature="0" />
    <path
       d="m 1330,3949 c 0,-172 3,-220 13,-216 9,3 11,44 10,168 -3,184 -7,186 53,-31 54,-195 64,-191 64,28 0,185 -8,272 -23,272 -7,0 -8,-57 -4,-167 6,-180 0,-190 -32,-57 -29,121 -62,224 -72,224 -5,0 -9,-96 -9,-221 z"
       id="path329"
       inkscape:connector-curvature="0" />
    <path
       d="m 1502,4157 c -21,-25 -24,-71 -13,-237 7,-106 15,-168 23,-176 7,-7 29,-14 48,-16 l 35,-3 -3,110 c -2,61 -8,114 -13,120 -11,11 -11,13 -9,-96 1,-65 -2,-89 -14,-98 -12,-10 -17,-9 -25,7 -13,24 -26,296 -17,346 7,34 10,37 33,31 18,-4 24,-2 21,7 -6,18 -52,22 -66,5 z"
       id="path331"
       inkscape:connector-curvature="0" />
    <path
       d="m 1348,3451 c -38,-13 -184,-117 -290,-207 -64,-54 -104,-98 -138,-151 -47,-74 -55,-95 -99,-281 -21,-88 -142,-358 -203,-454 -47,-72 -228,-298 -239,-298 -15,0 -101,-122 -130,-185 -36,-81 -59,-196 -57,-292 0,-43 3,-62 5,-43 2,19 10,85 18,145 18,130 58,223 132,305 43,48 48,51 60,34 7,-10 20,-19 29,-20 12,-2 13,0 3,12 -9,11 -8,18 6,34 17,19 41,18 29,-1 -3,-5 -11,-6 -17,-2 -9,5 -9,3 -1,-8 5,-8 10,-26 9,-41 -2,-58 33,3 100,177 24,63 55,134 68,158 14,23 40,76 58,117 18,41 46,96 61,122 16,25 48,102 72,171 37,106 52,135 105,201 63,80 96,134 87,143 -2,3 -13,-12 -24,-34 -11,-21 -30,-47 -42,-58 l -23,-20 12,23 c 7,13 10,26 7,30 -3,3 -6,0 -6,-7 0,-7 -4,-9 -10,-6 -5,3 -10,0 -10,-7 0,-7 -11,-31 -25,-53 -24,-38 -25,-39 -19,-10 8,38 68,149 102,191 58,68 225,197 354,273 55,32 134,32 209,0 57,-25 221,-170 312,-278 69,-81 95,-145 133,-326 18,-88 41,-182 49,-210 21,-69 37,-309 24,-382 -5,-32 -6,-76 -3,-98 7,-44 40,-115 53,-115 18,0 20,15 5,38 -8,13 -13,30 -10,38 3,9 1,12 -4,9 -14,-9 -12,6 5,35 13,22 21,16 16,-13 -1,-5 3,-6 9,-2 6,4 20,-4 31,-17 11,-13 17,-17 13,-9 -4,8 -9,32 -12,55 l -4,41 28,-26 c 16,-15 52,-38 79,-52 36,-19 44,-26 28,-27 -25,0 -39,-15 -23,-25 8,-5 7,-12 -2,-22 -12,-15 -11,-15 9,-3 20,13 20,15 5,27 -12,9 -6,8 20,-2 20,-8 45,-12 55,-9 15,5 16,4 3,-5 -8,-6 -23,-8 -34,-5 -12,4 -16,2 -12,-5 4,-6 1,-9 -7,-5 -8,3 -20,-2 -27,-11 -7,-8 -9,-15 -5,-15 4,0 1,-8 -6,-17 -13,-17 -12,-17 6,-2 36,28 51,33 28,8 -48,-53 -101,-198 -118,-324 -10,-74 2,-50 21,41 28,137 91,256 149,280 18,7 44,27 59,44 14,18 26,28 26,24 0,-5 5,-3 12,4 21,21 28,13 29,-30 1,-41 1,-42 10,-13 4,17 11,43 14,58 9,46 25,20 25,-41 0,-31 5,-64 10,-72 7,-11 10,-4 10,27 0,111 29,83 54,-52 10,-55 22,-112 26,-126 10,-32 65,-457 80,-619 6,-63 17,-237 24,-385 14,-289 22,-326 67,-338 54,-14 83,41 100,189 12,101 9,217 -11,419 -16,153 -8,436 14,525 14,55 104,256 112,248 1,-2 -23,-75 -54,-163 l -55,-160 -5,-180 c -2,-99 1,-245 7,-325 7,-80 13,-224 14,-320 2,-155 0,-179 -16,-204 -36,-54 -135,-75 -161,-33 -9,14 -20,89 -31,202 -9,99 -25,232 -35,295 -11,63 -22,180 -25,260 -8,188 -27,338 -62,480 -32,135 -44,113 -14,-28 19,-91 32,-215 46,-447 4,-55 13,-152 21,-215 8,-63 21,-187 30,-275 22,-233 29,-274 55,-301 37,-39 151,-26 189,23 46,59 49,235 9,646 -23,230 -17,374 20,478 20,57 102,263 145,364 14,33 26,73 26,88 0,17 10,36 26,50 24,21 27,33 36,137 13,131 6,197 -23,234 -23,30 -66,34 -102,12 -12,-8 -35,-14 -50,-14 -30,1 -64,-24 -78,-57 -8,-17 -9,-16 -4,5 3,14 10,73 16,132 13,131 -2,269 -32,299 -24,24 -62,24 -85,2 -15,-16 -16,-35 -10,-198 6,-175 1,-235 -21,-242 -7,-3 -12,59 -15,189 -5,215 -13,251 -60,256 -19,2 -36,-5 -53,-22 -30,-30 -32,-65 -10,-179 27,-139 16,-287 -20,-287 -6,0 -26,16 -44,35 -38,43 -54,44 -92,6 -41,-42 -39,-75 9,-105 21,-13 46,-36 55,-50 17,-25 17,-26 -1,-26 -25,0 -102,-60 -127,-100 -18,-28 -24,-31 -54,-26 -52,8 -135,52 -180,96 -22,22 -55,68 -72,102 -27,53 -33,79 -40,168 -5,62 -19,138 -33,185 -14,44 -32,125 -41,179 -19,119 -52,218 -94,284 -48,75 -297,314 -356,342 -54,25 -169,36 -217,21 z m 1542,-662 c 23,-41 32,-207 18,-314 -7,-55 -12,-108 -10,-118 5,-27 30,-20 68,19 34,37 34,37 55,18 21,-18 21,-25 15,-151 -4,-73 -9,-140 -12,-148 -6,-15 -43,-40 -49,-33 -1,2 -5,56 -8,122 -4,65 -9,121 -12,124 -9,9 -29,-16 -30,-38 -1,-11 4,-20 13,-20 10,0 13,-7 8,-22 -3,-13 -6,-51 -6,-86 0,-60 -1,-63 -32,-82 -23,-14 -51,-20 -89,-20 -70,0 -101,22 -123,87 -10,30 -12,43 -4,35 15,-15 38,-16 38,-1 0,20 -33,44 -56,41 -30,-4 -60,13 -123,70 -51,46 -62,73 -39,96 24,24 58,14 79,-23 12,-19 27,-35 34,-35 26,0 64,51 69,93 10,82 12,117 6,119 -10,4 -40,237 -33,254 7,19 52,29 66,15 7,-7 12,-83 14,-218 2,-115 6,-214 8,-220 10,-29 91,-6 83,23 -1,5 2,36 6,68 11,80 13,206 4,206 -10,0 -11,144 -1,153 13,13 32,7 43,-14 z m 258,-398 c 12,-35 13,-65 4,-161 -11,-128 -14,-140 -41,-140 -37,0 -45,26 -43,148 1,65 -3,132 -9,151 -13,40 -1,53 45,49 25,-3 32,-10 44,-47 z m -426,-354 c 18,-14 48,-22 88,-25 63,-5 78,-17 34,-28 -35,-9 -110,3 -143,22 -21,12 -27,23 -27,55 -1,36 0,38 10,18 6,-12 23,-31 38,-42 z m -2292,12 c -7,-11 -14,-18 -17,-15 -3,3 0,12 7,21 18,21 23,19 10,-6 z m 2660,-27 c 0,-21 -13,-63 -30,-97 -17,-33 -28,-51 -25,-40 32,107 43,159 38,172 -4,11 -2,14 5,9 7,-4 12,-24 12,-44 z m -2604,1 c -8,-15 -15,-25 -16,-21 0,12 23,58 27,54 3,-2 -2,-17 -11,-33 z m 2455,-109 c -53,-111 -68,-154 -25,-71 26,51 42,59 25,13 -17,-44 -3,-29 19,22 12,26 23,61 25,77 5,50 5,51 15,34 7,-12 5,-31 -5,-59 -19,-53 -19,-62 1,-30 l 15,25 -7,-25 c -3,-14 -26,-63 -50,-109 -58,-110 -80,-178 -95,-297 -13,-110 -7,-411 11,-534 8,-53 9,-104 1,-175 l -10,-100 3,105 c 2,58 1,97 -1,88 -6,-23 -20,-23 -26,0 -3,9 -6,-30 -8,-88 l -3,-105 -6,105 -6,105 -4,-90 -4,-90 -6,75 -6,75 -4,-55 -4,-55 -5,55 -5,55 -6,-55 c -6,-47 -7,-41 -9,45 -1,55 -6,134 -11,175 -6,41 -17,163 -25,270 -8,107 -24,251 -35,320 l -20,125 38,34 c 20,18 51,47 69,62 22,20 34,26 39,18 4,-7 3,-9 -3,-6 -6,4 -13,0 -17,-8 -12,-32 20,-8 41,30 24,43 29,43 13,0 -7,-18 -7,-32 1,-43 9,-14 10,-14 6,6 -3,12 -2,22 1,22 4,0 15,19 25,43 10,23 31,58 48,77 l 30,35 -30,-51 c -28,-46 -62,-127 -60,-143 0,-3 9,14 20,39 24,54 93,170 98,165 2,-2 -20,-52 -48,-111 z m 84,45 c -8,-19 -13,-25 -9,-14 3,11 8,34 12,50 3,17 8,23 10,14 1,-9 -4,-32 -13,-50 z m -59,-40 c -9,-19 -15,-29 -16,-22 0,15 22,64 27,60 2,-2 -3,-19 -11,-38 z M 2847,717 c -2,-23 -3,-1 -3,48 0,50 1,68 3,42 2,-26 2,-67 0,-90 z m -10,-109 c -2,-13 -4,-3 -4,22 0,25 2,35 4,23 2,-13 2,-33 0,-45 z"
       id="path333"
       inkscape:connector-curvature="0" />
    <path
       d="m 2796,2245 c 8,-11 14,-46 15,-80 l 1,-60 12,60 c 7,33 17,70 24,82 11,21 10,21 -27,20 -36,-2 -38,-3 -25,-22 z"
       id="path335"
       inkscape:connector-curvature="0" />
    <path
       d="m 2984,2136 c -3,-8 -1,-23 5,-33 9,-16 10,-15 11,9 0,14 6,29 13,31 7,3 5,6 -6,6 -10,1 -20,-5 -23,-13 z"
       id="path337"
       inkscape:connector-curvature="0" />
    <path
       d="m 3100,2149 c 0,-18 2,-19 15,-5 8,8 15,17 15,20 0,3 -7,6 -15,6 -9,0 -15,-9 -15,-21 z"
       id="path339"
       inkscape:connector-curvature="0" />
    <path
       d="m 1411,3350 c -13,-6 -31,-18 -40,-28 -9,-9 -23,-18 -31,-20 -15,-3 -59,-51 -60,-64 0,-4 23,9 51,27 59,41 105,55 176,55 41,0 58,-5 83,-27 l 32,-26 -4,23 c -5,39 -50,64 -121,67 -34,2 -73,-2 -86,-7 z"
       id="path341"
       inkscape:connector-curvature="0" />
    <path
       d="m 1410,3169 c -113,-19 -304,-130 -392,-227 -43,-48 -56,-70 -97,-177 -17,-44 -51,-113 -76,-154 -25,-40 -45,-76 -45,-80 0,-3 -12,-24 -26,-45 -15,-21 -21,-37 -14,-34 8,2 44,53 81,112 37,59 70,107 74,106 4,-1 12,4 17,12 14,19 2,-21 -39,-132 -31,-84 -70,-163 -119,-240 -9,-14 0,-7 21,15 20,22 59,85 87,140 28,55 48,92 45,83 -4,-10 -2,-20 4,-24 6,-3 8,-13 5,-21 -3,-8 -1,-11 4,-8 6,3 8,18 4,33 -4,23 -3,24 6,9 8,-13 7,-40 -4,-107 -31,-175 -17,-282 56,-428 65,-130 134,-198 301,-295 79,-47 123,-79 136,-100 27,-46 87,-253 111,-387 30,-166 29,-163 45,-156 9,3 15,-1 15,-9 0,-8 7,-15 15,-15 11,0 14,9 11,34 -3,26 -1,33 9,30 8,-3 15,-13 17,-22 2,-10 7,57 11,148 4,91 11,187 17,214 15,71 52,148 97,198 53,59 130,176 149,229 18,50 50,195 59,272 8,67 -12,387 -30,481 -14,76 -77,282 -96,319 -21,38 -117,139 -162,169 -75,50 -197,74 -297,57 z m 190,-65 c 31,-14 75,-47 102,-75 67,-71 97,-142 111,-255 9,-82 8,-97 -7,-131 -22,-50 -53,-89 -62,-80 -6,6 -2,23 22,97 3,8 -4,4 -15,-9 -12,-13 -21,-31 -21,-42 0,-10 -4,-21 -10,-24 -5,-3 -10,-1 -10,4 0,20 -36,11 -60,-14 l -24,-25 -25,31 -26,31 -44,-36 c -49,-41 -61,-44 -86,-16 -10,11 -25,18 -34,15 -11,-3 -23,7 -36,32 -11,20 -25,38 -32,41 -7,2 -2,-14 10,-37 17,-31 20,-45 11,-58 -14,-22 -34,-28 -34,-10 0,7 -9,22 -20,32 -20,18 -21,18 -50,-3 -39,-29 -47,-28 -55,7 -8,35 -26,45 -52,26 -28,-22 -31,-19 -35,41 l -3,56 28,-4 c 21,-4 27,-1 27,14 0,11 -7,18 -20,18 -17,0 -20,5 -17,28 3,21 9,26 26,25 11,-2 21,2 21,7 0,6 -3,10 -7,10 -29,1 -32,18 -12,69 58,155 99,201 210,241 78,28 161,26 229,-6 z m -523,-218 c -3,-8 2,-20 10,-28 15,-11 16,-11 10,5 -8,23 0,22 12,-1 7,-14 2,-46 -20,-120 -27,-96 -29,-113 -29,-276 0,-180 -10,-246 -35,-226 -10,8 -14,7 -18,-7 -3,-11 -5,-6 -6,11 -1,37 -18,24 -24,-19 -2,-16 -5,8 -6,55 -1,78 17,230 55,454 14,82 40,166 51,166 3,0 3,-6 0,-14 z m 835,-181 c 32,-107 37,-145 40,-288 1,-85 -2,-111 -13,-118 -18,-11 -25,26 -35,181 -4,68 -14,135 -25,165 -14,41 -25,137 -20,180 3,23 29,-37 53,-120 z m -56,-130 c 3,-25 3,-69 0,-99 -5,-34 -3,-56 3,-61 6,-3 11,-23 11,-43 0,-20 5,-57 11,-80 11,-52 2,-130 -13,-97 -5,13 -7,-3 -4,-44 2,-35 9,-68 15,-74 7,-7 7,1 0,28 -7,25 -7,40 -1,44 6,3 12,20 15,36 2,17 4,-16 4,-72 0,-57 -4,-103 -8,-103 -4,0 -28,9 -54,20 -26,11 -48,20 -50,20 -2,0 -18,-15 -34,-32 -28,-30 -32,-31 -46,-17 -9,9 -18,27 -20,40 -1,13 -5,33 -9,44 -3,11 4,-2 17,-28 22,-47 44,-57 27,-12 -5,13 -6,26 -3,29 3,3 -2,9 -11,12 -10,4 -14,10 -9,13 5,3 0,15 -11,25 -16,16 -18,16 -13,3 3,-9 2,-19 -3,-22 -6,-4 -10,2 -11,12 0,10 -3,13 -5,6 -3,-6 2,-25 10,-42 21,-40 21,-41 -14,-41 -19,0 -34,-7 -42,-20 -15,-24 -35,-25 -62,-5 -28,21 -79,19 -101,-5 -25,-28 -39,-25 -52,10 -17,47 -39,48 -83,5 l -38,-37 -32,17 c -31,16 -33,16 -56,-6 -13,-12 -26,-20 -29,-17 -3,3 -11,28 -18,54 -11,44 -15,49 -40,49 -22,-1 -27,4 -28,25 -2,46 2,90 12,123 16,53 39,256 32,287 -4,25 -2,29 15,27 17,-1 19,-5 10,-27 -10,-26 -2,-106 11,-114 9,-6 9,-6 11,97 1,42 5,77 9,77 4,0 7,-10 8,-21 1,-12 9,-29 18,-39 11,-12 13,-20 6,-25 -6,-3 -10,-21 -10,-38 l 2,-32 6,32 c 4,22 18,40 44,57 47,32 51,32 65,1 6,-14 18,-25 26,-25 13,0 12,-5 -2,-30 -14,-24 -18,-26 -23,-13 -3,10 -8,-6 -12,-35 -4,-35 -1,-66 8,-93 8,-23 15,-69 16,-103 1,-52 2,-57 10,-31 10,33 4,78 -18,139 -9,27 -10,43 -3,50 5,5 10,19 10,30 0,23 47,106 60,106 16,0 12,-12 -12,-39 l -23,-26 28,24 c 36,32 35,17 -3,-26 -16,-18 -30,-39 -30,-46 0,-7 9,3 21,22 11,18 23,31 26,27 3,-3 0,-12 -7,-21 -7,-9 -10,-18 -6,-22 10,-10 55,-10 49,0 -3,5 -14,7 -24,4 -27,-7 -23,8 8,33 18,14 34,19 48,15 11,-4 26,-7 33,-7 6,-1 12,-6 12,-12 0,-5 7,-1 15,10 17,22 20,12 4,-17 -6,-12 -7,-28 -3,-37 4,-9 6,-20 6,-24 -1,-5 3,-8 8,-8 6,0 8,17 5,43 l -5,42 13,-40 14,-40 12,60 13,61 39,-1 c 34,0 38,-2 33,-20 -6,-19 -6,-20 8,-1 10,12 20,16 29,11 8,-4 5,1 -6,12 -16,16 -25,18 -47,9 -22,-8 -31,-7 -47,8 -20,18 -35,9 -26,-16 3,-8 1,-32 -4,-53 -5,-22 -9,-32 -10,-22 -2,32 -21,59 -34,49 -12,-10 -44,-8 -55,2 -3,3 3,6 14,6 10,0 33,9 49,20 17,11 26,20 20,20 -5,-1 -19,-7 -29,-15 -11,-8 -32,-15 -47,-15 -15,0 -31,-4 -34,-10 -3,-5 -13,-10 -21,-10 -8,0 -12,4 -9,10 3,5 1,18 -4,29 -8,14 -7,22 3,30 10,9 17,6 30,-14 23,-34 49,-31 95,11 38,34 40,34 51,15 6,-11 20,-25 31,-31 17,-9 24,-6 48,19 28,30 29,30 46,11 23,-25 46,-25 77,0 14,10 29,16 33,12 5,-4 5,-2 1,5 -7,13 13,63 25,63 4,0 11,-20 15,-45 z m -759,-147 c -2,-24 -4,-7 -4,37 0,44 2,63 4,43 2,-21 2,-57 0,-80 z m 50,35 c -3,-10 -5,-2 -5,17 0,19 2,27 5,18 2,-10 2,-26 0,-35 z m 539,-898 c -15,-11 -16,-15 -5,-16 10,0 10,-2 1,-6 -6,-2 -10,-8 -8,-11 2,-4 -10,-7 -27,-8 -18,-1 -26,1 -19,3 6,3 10,9 7,14 -4,5 1,6 10,3 11,-5 14,-2 8,12 -4,10 -2,15 3,11 6,-3 16,-2 24,4 23,14 27,10 6,-6 z m -161,-15 c 3,-5 2,-10 -4,-10 -5,0 -13,5 -16,10 -3,6 -2,10 4,10 5,0 13,-4 16,-10 z m 16,-49 c 0,-3 2,-14 4,-23 2,-11 -2,-15 -12,-11 -12,5 -12,7 -2,14 11,6 10,9 -4,15 -9,3 -17,10 -17,15 0,9 30,0 31,-10 z m 125,-7 c -3,-9 -6,-24 -6,-35 0,-13 -7,-19 -22,-20 -17,-1 -19,-2 -5,-6 9,-2 17,-8 17,-13 0,-4 -9,-6 -20,-3 -27,7 -25,33 3,34 22,2 22,2 0,6 -14,3 -21,11 -20,23 1,15 7,18 27,14 19,-4 22,-3 10,5 -13,9 -12,11 4,11 12,0 16,-5 12,-16 z m -106,-68 c 0,-2 -7,-7 -16,-10 -8,-3 -12,-2 -9,4 6,10 25,14 25,6 z m 65,-26 c 3,-5 1,-10 -4,-10 -6,0 -11,5 -11,10 0,6 2,10 4,10 3,0 8,-4 11,-10 z m 25,-20 c 0,-5 -10,-10 -22,-10 -19,0 -20,2 -8,10 19,13 30,13 30,0 z m -84,-35 c 3,-22 -13,-9 -19,16 -4,16 -3,19 5,11 7,-7 13,-19 14,-27 z m 74,-21 c 0,-2 -7,-4 -15,-4 -8,0 -15,4 -15,10 0,5 7,7 15,4 8,-4 15,-8 15,-10 z m -5,-44 c 3,-5 1,-10 -4,-10 -6,0 -11,5 -11,10 0,6 2,10 4,10 3,0 8,-4 11,-10 z m 5,-60 c -9,-5 -9,-9 -1,-14 16,-10 13,-36 -4,-36 -8,0 -15,5 -15,11 0,5 6,7 13,3 9,-6 9,-4 1,7 -16,20 -14,48 4,42 10,-4 11,-8 2,-13 z"
       id="path343"
       inkscape:connector-curvature="0" />
    <path
       d="m 1448,3023 c 18,-2 45,-2 60,0 15,2 0,4 -33,4 -33,0 -45,-2 -27,-4 z"
       id="path345"
       inkscape:connector-curvature="0" />
    <path
       d="m 1503,2973 c 9,-2 25,-2 35,0 9,3 1,5 -18,5 -19,0 -27,-2 -17,-5 z"
       id="path347"
       inkscape:connector-curvature="0" />
    <path
       d="m 1494,2928 c 38,-5 78,-6 88,-1 12,5 -14,8 -69,9 l -88,1 z"
       id="path349"
       inkscape:connector-curvature="0" />
    <path
       d="m 1600,2790 c 0,-5 4,-10 9,-10 6,0 13,5 16,10 3,6 -1,10 -9,10 -9,0 -16,-4 -16,-10 z"
       id="path351"
       inkscape:connector-curvature="0" />
    <path
       d="m 1420,2770 c 0,-5 5,-10 10,-10 6,0 10,5 10,10 0,6 -4,10 -10,10 -5,0 -10,-4 -10,-10 z"
       id="path353"
       inkscape:connector-curvature="0" />
    <path
       d="m 1539,2705 c -5,-87 -4,-94 11,-79 6,6 7,38 2,84 l -9,75 z"
       id="path355"
       inkscape:connector-curvature="0" />
    <path
       d="m 1836,2558 c -9,-42 -14,-234 -6,-200 10,44 23,222 16,222 -3,0 -8,-10 -10,-22 z"
       id="path357"
       inkscape:connector-curvature="0" />
    <path
       d="m 1703,2499 c 32,-56 41,-101 27,-131 -11,-22 -10,-22 4,-4 15,19 16,17 16,-23 0,-23 5,-51 10,-61 8,-14 6,-30 -5,-56 -8,-21 -13,-39 -10,-42 2,-3 8,4 12,16 7,18 11,16 40,-26 42,-61 51,-84 29,-76 -9,3 -13,11 -9,17 3,6 1,7 -5,3 -8,-5 -8,-13 0,-31 9,-21 14,-23 26,-12 9,7 13,7 9,1 -4,-6 3,-20 16,-30 18,-16 19,-16 8,-1 -7,9 -11,17 -7,17 4,0 -1,14 -9,30 -9,17 -13,39 -10,50 3,10 1,21 -4,25 -7,4 -8,-1 -4,-12 8,-22 3,-18 -36,31 -42,53 -41,80 2,35 17,-20 24,-26 15,-14 -22,26 -24,42 -3,25 9,-8 15,-9 15,-2 0,6 -4,13 -8,16 -5,3 -8,67 -8,142 1,75 -2,141 -6,147 -7,10 -14,-163 -10,-231 0,-12 -3,-20 -9,-17 -12,8 -12,-2 1,-26 6,-10 8,-19 6,-19 -19,0 -37,70 -38,148 -1,57 -4,77 -9,57 -4,-16 -7,-22 -8,-12 -1,23 -37,94 -52,103 -6,4 0,-13 14,-37 z m 104,-191 c -3,-8 -6,-5 -6,6 -1,11 2,17 5,13 3,-3 4,-12 1,-19 z"
       id="path359"
       inkscape:connector-curvature="0" />
    <path
       d="m 1256,2508 c -9,-12 -15,-36 -15,-53 2,-30 2,-29 8,5 3,19 11,35 18,35 6,0 15,4 20,9 5,6 2,6 -6,1 -11,-6 -13,-4 -8,8 9,24 1,21 -17,-5 z"
       id="path361"
       inkscape:connector-curvature="0" />
    <path
       d="m 1736,2497 c 3,-10 9,-15 12,-12 3,3 0,11 -7,18 -10,9 -11,8 -5,-6 z"
       id="path363"
       inkscape:connector-curvature="0" />
    <path
       d="m 1766,2490 c 5,-14 8,-63 7,-110 -1,-56 1,-77 7,-60 15,45 11,153 -6,175 -16,19 -16,19 -8,-5 z"
       id="path365"
       inkscape:connector-curvature="0" />
    <path
       d="m 1172,2447 c -2,-66 -15,-97 -40,-97 -13,0 -14,-2 -4,-9 8,-4 13,-12 12,-17 -4,-22 24,-12 55,19 27,27 35,43 34,69 l -1,33 -8,-37 c -7,-37 -34,-78 -52,-78 -5,0 1,13 13,29 11,16 19,37 16,47 -4,15 -5,14 -8,-6 -1,-14 -5,4 -9,40 l -7,65 z m 8,-81 c 0,-2 -8,-10 -17,-17 -16,-13 -17,-12 -4,4 13,16 21,21 21,13 z"
       id="path367"
       inkscape:connector-curvature="0" />
    <path
       d="m 1213,2475 c -3,-9 -3,-18 -1,-21 3,-3 8,4 11,16 6,23 -1,27 -10,5 z"
       id="path369"
       inkscape:connector-curvature="0" />
    <path
       d="m 1261,2460 c 0,-14 -4,-36 -7,-50 -5,-22 -4,-23 6,-7 6,9 9,32 7,50 -3,25 -4,26 -6,7 z"
       id="path371"
       inkscape:connector-curvature="0" />
    <path
       d="m 1611,2444 c 0,-11 3,-14 6,-6 3,7 2,16 -1,19 -3,4 -6,-2 -5,-13 z"
       id="path373"
       inkscape:connector-curvature="0" />
    <path
       d="m 1636,2419 c 3,-34 2,-38 -5,-19 l -9,25 -2,-25 c -2,-18 -4,-20 -7,-7 -2,9 -9,14 -15,11 -7,-5 -9,2 -6,20 3,15 2,24 -2,19 -12,-14 -20,-73 -10,-73 6,0 10,6 10,13 0,9 3,8 9,-2 5,-7 14,-10 20,-7 6,4 11,0 11,-11 0,-15 2,-16 10,-3 12,19 13,70 1,89 -7,10 -8,0 -5,-30 z"
       id="path375"
       inkscape:connector-curvature="0" />
    <path
       d="m 1281,2438 c 0,-9 -4,-25 -7,-35 -5,-14 -4,-15 5,-7 7,7 11,22 8,35 -2,13 -5,16 -6,7 z"
       id="path377"
       inkscape:connector-curvature="0" />
    <path
       d="m 1431,2440 c 0,-3 6,-27 14,-55 8,-30 14,-40 14,-25 0,20 -26,97 -28,80 z"
       id="path379"
       inkscape:connector-curvature="0" />
    <path
       d="m 1712,2410 c 0,-14 2,-19 5,-12 2,6 2,18 0,25 -3,6 -5,1 -5,-13 z"
       id="path381"
       inkscape:connector-curvature="0" />
    <path
       d="m 1476,2378 c -3,-13 -6,-55 -6,-95 0,-39 -3,-74 -7,-76 -5,-3 -7,23 -6,56 l 1,62 -7,-57 c -3,-31 -10,-60 -14,-65 -5,-4 -6,6 -3,22 l 6,30 -11,-27 c -8,-21 -7,-33 6,-57 8,-17 11,-31 6,-31 -6,0 -8,-14 -5,-32 4,-30 4,-31 -6,-9 -6,13 -8,32 -5,42 3,9 0,23 -8,30 -12,12 -12,21 1,64 8,27 16,73 17,100 2,34 1,39 -3,15 l -5,-35 -6,29 c -3,16 -12,31 -19,32 -7,1 -8,0 -2,-3 5,-2 10,-23 10,-46 0,-31 -3,-38 -10,-27 -8,12 -10,9 -10,-13 0,-16 4,-26 10,-22 12,8 13,-1 1,-42 -11,-37 -4,-76 12,-66 7,4 8,0 4,-11 -8,-21 9,-92 24,-102 8,-4 9,1 4,16 -5,14 -3,20 3,16 6,-4 8,3 5,16 -4,19 -3,20 6,8 7,-9 11,-10 11,-3 0,6 -4,15 -10,18 -5,3 -10,11 -10,16 0,6 5,7 11,3 6,-3 3,8 -6,26 l -16,31 23,-12 c 13,-6 20,-9 17,-5 -3,3 0,37 7,74 16,79 17,121 3,82 -6,-19 -8,-13 -4,23 5,50 1,61 -9,25 z"
       id="path383"
       inkscape:connector-curvature="0" />
    <path
       d="m 1847,2383 c -14,-48 -17,-83 -11,-109 6,-25 8,-26 14,-9 7,17 9,15 19,-15 9,-29 10,-30 5,-5 -2,17 -7,57 -10,90 -6,66 -10,76 -17,48 z m 0,-95 c -3,-7 -5,-2 -5,12 0,14 2,19 5,13 2,-7 2,-19 0,-25 z"
       id="path385"
       inkscape:connector-curvature="0" />
    <path
       d="m 1652,2339 c -7,-28 -12,-70 -12,-94 0,-24 -5,-47 -12,-51 -8,-5 -9,10 -4,58 8,85 3,98 -41,98 -58,0 -74,-15 -72,-66 2,-30 7,-44 17,-44 15,0 13,-35 -3,-72 -4,-11 -3,-18 3,-18 6,0 13,8 15,18 3,9 3,-14 1,-53 l -3,-70 9,64 c 5,35 12,71 14,78 3,8 1,11 -4,8 -6,-3 -10,5 -10,19 0,25 8,31 38,27 6,-1 13,4 13,11 1,7 5,-9 10,-37 4,-27 7,-51 5,-53 -2,-1 -13,16 -25,40 -11,24 -21,38 -21,31 0,-11 7,-30 31,-88 4,-11 10,-31 12,-45 3,-16 5,-11 6,15 1,29 4,36 11,25 7,-12 10,-11 16,5 4,11 10,25 12,30 3,6 -2,4 -11,-4 -21,-17 -21,-13 -1,28 11,22 14,46 11,74 -4,29 -3,36 3,22 5,-11 9,-31 10,-45 2,-17 5,-10 11,19 5,25 6,47 4,50 -3,2 -5,-4 -6,-15 0,-18 -1,-18 -9,1 -5,11 -9,27 -9,35 -1,13 0,13 9,0 8,-11 9,-7 4,15 -4,17 -8,31 -9,32 -1,2 -7,-20 -13,-48 z"
       id="path387"
       inkscape:connector-curvature="0" />
    <path
       d="m 1236,2363 c -6,-14 -5,-15 5,-6 7,7 10,15 7,18 -3,3 -9,-2 -12,-12 z"
       id="path389"
       inkscape:connector-curvature="0" />
    <path
       d="m 1333,2340 c 0,-25 2,-35 4,-22 2,12 2,32 0,45 -2,12 -4,2 -4,-23 z"
       id="path391"
       inkscape:connector-curvature="0" />
    <path
       d="m 1701,2364 c 0,-11 3,-14 6,-6 3,7 2,16 -1,19 -3,4 -6,-2 -5,-13 z"
       id="path393"
       inkscape:connector-curvature="0" />
    <path
       d="m 1372,2340 c 0,-19 2,-27 5,-17 2,9 2,25 0,35 -3,9 -5,1 -5,-18 z"
       id="path395"
       inkscape:connector-curvature="0" />
    <path
       d="m 1352,2335 c 0,-16 2,-22 5,-12 2,9 2,23 0,30 -3,6 -5,-1 -5,-18 z"
       id="path397"
       inkscape:connector-curvature="0" />
    <path
       d="m 1725,2329 c -4,-6 -5,-12 -2,-15 2,-3 7,2 10,11 7,17 1,20 -8,4 z"
       id="path399"
       inkscape:connector-curvature="0" />
    <path
       d="m 1298,2240 c 2,-41 6,-77 8,-79 7,-8 2,104 -6,129 -4,14 -5,-8 -2,-50 z"
       id="path401"
       inkscape:connector-curvature="0" />
    <path
       d="m 1113,2288 c -4,-7 -8,-17 -9,-23 -1,-5 -5,-19 -10,-30 -4,-11 -5,-18 -3,-15 2,3 17,20 34,38 22,25 25,31 11,26 -14,-5 -17,-4 -12,4 4,7 5,12 2,12 -3,0 -8,-6 -13,-12 z"
       id="path403"
       inkscape:connector-curvature="0" />
    <path
       d="m 1261,2274 c 0,-11 3,-14 6,-6 3,7 2,16 -1,19 -3,4 -6,-2 -5,-13 z"
       id="path405"
       inkscape:connector-curvature="0" />
    <path
       d="m 1340,2285 c 0,-5 5,-17 10,-25 5,-8 10,-10 10,-5 0,6 -5,17 -10,25 -5,8 -10,11 -10,5 z"
       id="path407"
       inkscape:connector-curvature="0" />
    <path
       d="m 1726,2245 3,-50 -10,43 c -6,24 -13,42 -15,39 -3,-2 0,-26 6,-52 11,-47 0,-82 -21,-69 -5,3 -6,-2 -3,-10 3,-8 23,-22 45,-30 43,-18 51,-28 17,-23 -13,2 -17,2 -10,0 10,-4 10,-8 -3,-17 -16,-11 -15,-13 2,-27 17,-13 17,-13 3,5 -14,18 -13,18 10,12 17,-5 20,-4 12,2 -11,7 -11,10 2,15 9,4 20,-1 26,-11 9,-14 10,-12 4,8 -10,37 -22,48 -47,43 -19,-4 -20,-3 -5,7 16,10 16,13 3,34 -12,18 -13,30 -5,50 7,20 6,34 -4,54 -14,26 -14,25 -10,-23 z m 10,-107 c -23,-13 -40,0 -25,18 9,11 15,12 26,2 12,-10 12,-13 -1,-20 z"
       id="path409"
       inkscape:connector-curvature="0" />
    <path
       d="m 1131,2245 c -17,-20 -31,-39 -31,-42 0,-4 3,-3 8,3 4,5 20,24 36,42 17,17 27,32 24,32 -3,0 -20,-16 -37,-35 z"
       id="path411"
       inkscape:connector-curvature="0" />
    <path
       d="m 1237,2250 c -3,-14 -8,-41 -10,-60 -3,-31 -4,-29 -6,10 -1,32 -4,41 -11,30 -5,-8 -7,-44 -5,-80 l 4,-65 -12,70 c -7,39 -15,63 -18,55 -7,-19 13,-128 29,-155 7,-12 12,-14 12,-6 0,9 5,8 18,-6 9,-10 14,-14 10,-9 -11,14 -10,28 2,21 10,-6 15,11 9,30 -2,6 -6,51 -9,100 -4,60 -8,82 -13,65 z m -1,-140 c -3,-18 -2,-29 3,-25 5,3 13,0 17,-6 4,-8 3,-9 -4,-5 -7,4 -12,1 -12,-6 0,-9 -3,-9 -10,2 -8,12 -10,12 -10,1 0,-8 -2,-12 -5,-10 -5,6 16,79 23,79 2,0 2,-14 -2,-30 z"
       id="path413"
       inkscape:connector-curvature="0" />
    <path
       d="m 1270,2219 c 0,-19 -2,-52 -5,-74 -4,-34 -3,-35 4,-10 7,29 8,29 15,-18 9,-53 18,-63 43,-48 10,6 12,11 6,11 -15,0 -18,30 -3,30 6,0 10,-5 10,-12 0,-15 11,-4 14,14 1,7 6,20 11,28 8,13 7,13 -8,1 -24,-19 -26,-12 -6,27 l 17,34 12,-59 c 11,-57 30,-116 35,-111 7,7 -44,181 -55,191 -9,9 -11,9 -7,1 11,-19 -13,-71 -39,-89 l -24,-15 -1,50 c -2,63 -2,67 -11,76 -5,4 -8,-8 -8,-27 z m 50,-104 c -7,-8 -10,-22 -6,-30 3,-9 2,-13 -4,-10 -11,7 -13,38 -3,48 13,14 25,7 13,-8 z"
       id="path415"
       inkscape:connector-curvature="0" />
    <path
       d="m 1141,2214 c -26,-34 -26,-82 0,-154 19,-51 20,-52 14,-15 -4,29 -3,36 4,25 10,-13 11,-13 12,0 0,10 3,8 9,-5 10,-23 13,-5 4,20 -5,13 -9,14 -15,4 -5,-9 -10,-4 -15,16 -6,26 -8,27 -15,10 -5,-14 -8,-6 -8,26 -1,32 5,54 20,73 11,14 18,26 15,26 -2,0 -14,-12 -25,-26 z"
       id="path417"
       inkscape:connector-curvature="0" />
    <path
       d="m 1490,2217 c 0,-7 7,-22 15,-33 13,-17 14,-17 15,-1 0,9 -4,17 -10,17 -5,0 -7,7 -4,15 4,8 1,15 -5,15 -6,0 -11,-6 -11,-13 z"
       id="path419"
       inkscape:connector-curvature="0" />
    <path
       d="m 1092,2165 c 0,-16 2,-22 5,-12 2,9 2,23 0,30 -3,6 -5,-1 -5,-18 z"
       id="path421"
       inkscape:connector-curvature="0" />
    <path
       d="m 1755,2181 c -4,-8 2,-23 18,-38 33,-33 45,-13 14,23 -18,20 -26,24 -32,15 z"
       id="path423"
       inkscape:connector-curvature="0" />
    <path
       d="m 1163,2145 c 0,-22 2,-30 4,-17 2,12 2,30 0,40 -3,9 -5,-1 -4,-23 z"
       id="path425"
       inkscape:connector-curvature="0" />
    <path
       d="m 1566,2107 c -4,-43 -6,-81 -3,-84 7,-6 20,119 15,143 -2,10 -8,-16 -12,-59 z"
       id="path427"
       inkscape:connector-curvature="0" />
    <path
       d="m 1492,2133 c -5,-10 -12,-32 -15,-50 -5,-25 -3,-31 8,-27 7,3 17,24 20,45 8,45 2,60 -13,32 z"
       id="path429"
       inkscape:connector-curvature="0" />
    <path
       d="m 1516,2084 c -4,-14 -5,-28 -3,-31 3,-2 8,8 11,23 4,14 5,28 3,31 -3,2 -8,-8 -11,-23 z"
       id="path431"
       inkscape:connector-curvature="0" />
    <path
       d="m 1371,2083 c -1,-12 4,-25 9,-28 12,-7 12,2 0,30 -8,19 -9,19 -9,-2 z"
       id="path433"
       inkscape:connector-curvature="0" />
    <path
       d="m 1640,2071 c 0,-6 4,-13 10,-16 6,-3 7,1 4,9 -7,18 -14,21 -14,7 z"
       id="path435"
       inkscape:connector-curvature="0" />
    <path
       d="m 1581,2054 c 0,-11 3,-14 6,-6 3,7 2,16 -1,19 -3,4 -6,-2 -5,-13 z"
       id="path437"
       inkscape:connector-curvature="0" />
    <path
       d="m 1628,1473 c 7,-3 16,-2 19,1 4,3 -2,6 -13,5 -11,0 -14,-3 -6,-6 z"
       id="path439"
       inkscape:connector-curvature="0" />
    <path
       d="m 810,2103 c 0,-7 9,-35 20,-62 11,-28 17,-58 13,-67 -5,-13 -3,-15 7,-9 9,5 11,4 6,-4 -4,-6 -2,-19 6,-28 9,-12 10,-15 0,-9 -21,12 -52,84 -45,103 5,15 2,14 -19,-5 -24,-21 -38,-21 -38,2 0,7 3,7 8,0 5,-8 14,-3 27,15 17,23 17,24 1,11 -23,-18 -49,-22 -43,-6 3,7 -1,13 -9,13 -18,0 -18,-1 5,-45 37,-72 78,-117 132,-146 62,-34 182,-126 175,-134 -3,-3 0,-12 7,-20 10,-13 9,-15 -6,-9 -12,5 -16,3 -11,-4 4,-7 1,-10 -7,-7 -8,3 -13,11 -11,17 1,7 -2,10 -8,6 -6,-3 -7,-11 -4,-17 5,-8 1,-9 -12,-4 -12,4 -7,-3 11,-18 37,-31 45,-32 40,-6 -5,24 3,25 29,5 11,-8 27,-15 35,-15 9,1 1,7 -18,16 -19,8 -32,17 -28,20 3,3 22,-4 44,-15 21,-11 31,-20 23,-21 -13,0 -13,-1 0,-10 13,-9 13,-10 0,-11 -10,0 -8,-3 5,-9 13,-5 14,-9 5,-9 -8,0 -24,4 -35,9 l -20,9 20,1 c 15,0 11,5 -14,15 -41,18 -38,18 -38,0 0,-10 6,-14 16,-10 12,5 13,3 4,-6 -16,-16 -56,1 -125,53 -111,83 -303,149 -376,130 l -37,-10 45,-1 c 25,-1 73,-8 107,-16 68,-16 231,-93 253,-120 26,-31 96,-63 195,-89 55,-15 116,-38 136,-51 44,-29 84,-97 105,-179 23,-94 35,-126 45,-126 24,0 -12,153 -59,254 -36,77 -122,165 -227,233 -70,46 -175,131 -207,168 -10,11 -42,67 -72,125 -31,58 -55,100 -56,93 z m 292,-393 c 18,-11 29,-20 25,-20 -11,0 -67,29 -67,35 0,9 9,5 42,-15 z m -57,-38 c -3,-3 -11,0 -18,7 -9,10 -8,11 6,5 10,-3 15,-9 12,-12 z"
       id="path441"
       inkscape:connector-curvature="0" />
    <path
       d="m 2187,1941 c -29,-59 -111,-149 -192,-210 -22,-16 -52,-39 -66,-50 -30,-23 -68,-98 -76,-148 -8,-49 10,-40 38,19 43,92 75,127 144,158 68,31 147,96 171,141 16,32 19,53 3,26 -6,-9 -14,-15 -19,-12 -4,3 -11,-2 -14,-11 -3,-8 -10,-13 -15,-9 -6,3 3,27 19,53 26,41 49,102 39,102 -2,0 -17,-27 -32,-59 z"
       id="path443"
       inkscape:connector-curvature="0" />
  </g>
</svg>
