<?xml version="1.0" encoding="UTF-8" standalone="no"?>
<!-- Created with Inkscape (http://www.inkscape.org/) -->

<svg
   xmlns:dc="http://purl.org/dc/elements/1.1/"
   xmlns:cc="http://creativecommons.org/ns#"
   xmlns:rdf="http://www.w3.org/1999/02/22-rdf-syntax-ns#"
   xmlns:svg="http://www.w3.org/2000/svg"
   xmlns="http://www.w3.org/2000/svg"
   xmlns:sodipodi="http://sodipodi.sourceforge.net/DTD/sodipodi-0.dtd"
   xmlns:inkscape="http://www.inkscape.org/namespaces/inkscape"
   width="1000"
   height="1000"
   id="svg2996"
   version="1.1"
   inkscape:version="0.48.5 r10040"
   sodipodi:docname="gmarciani-logo.svg"
   inkscape:export-filename="/home/gmarciani/Dropbox/workspace/logo/gmarciani-logo.png"
   inkscape:export-xdpi="90"
   inkscape:export-ydpi="90">
  <defs
     id="defs2998">
    <inkscape:path-effect
       is_visible="true"
       id="path-effect5782"
       effect="spiro" />
    <inkscape:path-effect
       is_visible="true"
       id="path-effect5782-3"
       effect="spiro" />
  </defs>
  <sodipodi:namedview
     id="base"
     pagecolor="#ffffff"
     bordercolor="#666666"
     borderopacity="1.0"
     inkscape:pageopacity="0.0"
     inkscape:pageshadow="2"
     inkscape:zoom="0.35"
     inkscape:cx="120.88711"
     inkscape:cy="343.81105"
     inkscape:document-units="px"
     inkscape:current-layer="layer1"
     showgrid="false"
     inkscape:window-width="1366"
     inkscape:window-height="702"
     inkscape:window-x="0"
     inkscape:window-y="27"
     inkscape:window-maximized="1" />
  <metadata
     id="metadata3001">
    <rdf:RDF>
      <cc:Work
         rdf:about="">
        <dc:format>image/svg+xml</dc:format>
        <dc:type
           rdf:resource="http://purl.org/dc/dcmitype/StillImage" />
        <dc:title></dc:title>
      </cc:Work>
    </rdf:RDF>
  </metadata>
  <g
     inkscape:label="Layer 1"
     inkscape:groupmode="layer"
     id="layer1"
     transform="translate(0,-52.362183)">
    <g
       transform="matrix(2.4291598,0,0,2.4291598,-711.58596,-788.79803)"
       id="layer1-4"
       inkscape:label="Livello 1"
       style="stroke:#33678e;stroke-opacity:1"
       inkscape:export-filename="/home/gmarciani/Dropbox/workspace/logo/gmarciani-logo.png"
       inkscape:export-xdpi="90"
       inkscape:export-ydpi="90">
      <path
         sodipodi:nodetypes="csssssssssszsssc"
         inkscape:connector-curvature="0"
         inkscape:original-d="m 518.74174,447.07302 c 0,0 -150.64401,215.67064 -118.92326,221.48698 31.72075,5.81634 75.23518,-9.45751 78.97606,-13.70204 3.74086,-4.24453 -10.27308,-54.19838 -11.90563,-86.34741 -1.63256,-32.14903 9.88391,-73.66515 24.08933,-74.87314 17.2182,-1.46418 29.81047,30.37842 27.7635,74.87314 -2.04674,44.49021 -2.32334,61.78513 16.04881,61.78513 18.37214,0 18.9113,-21.11664 19.72298,-61.78513 0.81168,-40.66849 -3.5318,-37.43657 14.84036,-37.43657 18.37212,0 15.24932,9.81774 14.84033,37.43657 -0.40897,27.61881 -13.42659,31.99476 15.87307,30.89257 27.85636,-1.04793 16.6717,-8.15859 15.87306,-30.89257 -0.79862,-22.734 -18.32142,-20.06984 14.65919,-18.71829 36.96133,1.51468 15.5441,2.0013 14.65919,18.71829 -0.41633,7.86506 7.47936,13.44293 13.25285,15.44628 5.77348,2.00336 12.21484,-19.59175 13.25284,-15.44628"
         inkscape:path-effect="#path-effect5782-3"
         id="path5780"
         d="m 518.74174,447.07302 c -29.15145,-18.59769 -66.14291,-24.4305 -99.60263,-15.70533 -33.45972,8.72518 -62.89239,31.87918 -79.24995,62.3441 -16.35757,30.46492 -19.39789,67.78979 -8.18632,100.50037 11.21157,32.71058 36.50907,60.32265 68.11564,74.34784 13.34316,5.92093 28.05398,9.52172 42.55602,7.852 7.25103,-0.83487 14.37922,-2.99674 20.71553,-6.61966 6.33631,-3.62292 11.86337,-8.72793 15.70451,-14.93438 3.9846,-6.43825 6.09128,-13.94099 6.64286,-21.4924 0.55159,-7.55141 -0.41146,-15.16049 -2.23715,-22.50861 -3.6514,-14.69625 -10.66795,-28.2942 -16.31134,-42.3464 -5.77576,-14.38181 -10.18289,-30.08054 -7.09846,-45.26877 1.54221,-7.59411 5.01837,-14.88566 10.47533,-20.38753 5.45696,-5.50186 12.96424,-9.09801 20.71246,-9.21684 7.80335,-0.11967 15.46409,3.29167 21.11948,8.66969 5.65539,5.37803 9.37796,12.60216 11.21534,20.18706 3.67475,15.16979 0.0395,31.10443 -4.57132,46.01639 -3.66643,11.85761 -8.01352,23.99656 -6.7106,36.3395 0.65147,6.17147 2.79327,12.28255 6.74468,17.0677 3.95142,4.78516 9.81404,8.12718 16.01473,8.37793 6.33566,0.25621 12.57309,-2.73689 16.9106,-7.36207 4.33751,-4.62518 6.87613,-10.74679 7.86769,-17.00962 1.98312,-12.52567 -1.90884,-25.12829 -5.05531,-37.41344 -1.94898,-7.60965 -3.62456,-15.63988 -1.66485,-23.24677 0.97985,-3.80345 2.89913,-7.41685 5.78972,-10.07595 2.89059,-2.6591 6.79218,-4.29802 10.71549,-4.11385 3.79936,0.17835 7.41772,2.05024 10.05996,4.78622 2.64223,2.73597 4.35312,6.28319 5.25854,9.9774 1.81085,7.38841 0.50774,15.13002 -0.47817,22.67295 -0.86581,6.62413 -1.44886,13.55248 0.8691,19.81792 1.15897,3.13272 3.05843,6.03331 5.68095,8.10202 2.62252,2.06871 5.99483,3.25602 9.32302,2.97263 3.15505,-0.26865 6.12325,-1.83757 8.37632,-4.06248 2.25306,-2.22491 3.82587,-5.07273 4.85246,-8.06817 2.05317,-5.99087 1.9799,-12.46393 2.64428,-18.76192 0.46132,-4.37307 1.33638,-8.83268 3.71892,-12.52862 1.19127,-1.84798 2.75573,-3.475 4.64274,-4.60342 1.887,-1.12842 4.10435,-1.74147 6.29753,-1.58625 2.10653,0.14909 4.13228,0.99938 5.82951,2.256 1.69724,1.25662 3.07805,2.90712 4.17987,4.7087 2.20365,3.60315 3.29705,7.75249 4.64981,11.75359 1.13873,3.36806 2.50204,6.71156 4.63936,9.55276 2.13732,2.84119 5.13406,5.1627 8.61349,5.89352 2.02363,0.42504 4.16073,0.29635 6.11873,-0.36846 1.95799,-0.66482 3.73164,-1.86397 5.0781,-3.43329 1.34647,-1.56931 2.26215,-3.50459 2.62169,-5.54088 0.35953,-2.03628 0.16196,-4.16812 -0.56568,-6.10365"
         style="fill:none;stroke:#33678e;stroke-width:24.71803474;stroke-linecap:round;stroke-linejoin:round;stroke-miterlimit:4;stroke-opacity:1;stroke-dasharray:none;stroke-dashoffset:0" />
    </g>
  </g>
</svg>
